<svg width="46" height="17" viewBox="0 0 24 9" xmlns="http://www.w3.org/2000/svg"><g fill="none" fill-rule="evenodd"><path d="M7.175 5.35c.954 0 1.727.743 1.727 1.66 0 .918-.773 1.66-1.727 1.66-.955 0-1.728-.742-1.728-1.66 0-.917.773-1.66 1.728-1.66zm10.893 0c.954 0 1.728.743 1.728 1.66 0 .918-.774 1.66-1.728 1.66s-1.728-.742-1.728-1.66c0-.917.774-1.66 1.728-1.66zM9.408.14c1.174-.35 5.083.022 6.244.366.767.226 1.886.851 3.354 1.875.024.017.05.032.078.044l3.156 1.398a2.443 2.443 0 011.457 2.043l.078 1.013a.457.457 0 01-.405.486c-1.34.162-2.33.276-2.989.343.072-.22.11-.455.11-.697 0-1.292-1.087-2.344-2.423-2.344s-2.423 1.052-2.423 2.344c0 .27.05.528.137.77H9.46c.087-.242.138-.5.138-.77 0-1.292-1.087-2.344-2.423-2.344-1.337 0-2.423 1.052-2.423 2.344 0 .086.005.17.015.254a86.65 86.65 0 01-.98-.258.454.454 0 01-.332-.528l.76-3.764a.456.456 0 01.243-.316C6.994 1.12 8.644.369 9.408.14zM2.952 5.35l-.099.486h-1.12a.246.246 0 01-.247-.243c0-.134.11-.243.247-.243h1.22zm.19-.973l-.099.486H.886a.245.245 0 01-.248-.243c0-.134.111-.243.248-.243h2.256zm.304-1.46l-.105.488H.248A.246.246 0 010 3.16c0-.134.111-.243.248-.243h3.198z" fill="#FFF"/><path d="M14.744 2.323c-.11.33-.26.804-.476 1.642l-.139.553-.052.214c-.059.244-.165.622-.2.759-.053.216-.114.344-.35.41 0 0-.123.04-.271.019-.32-.044-.335-.284-.389-.478-.08-.296-.167-1.02-.178-1.442a23.109 23.109 0 01-.003-.13l-.002-.041a.14.14 0 00-.004-.039c-.004-.013-.013-.017-.028-.014-.015.004-.027.02-.05.08-.04.12-.114.348-.17.553-.099.345-.214.741-.265.965l-.171.63c-.045.188-.248.307-.382.34a.657.657 0 01-.342.016c-.149-.036-.235-.212-.279-.37a2.439 2.439 0 01-.088-.454 8.62 8.62 0 01-.037-1.088c.013-.47.062-1.155.095-1.536l.017-.379c0-.14-.008-.228-.027-.29a.394.394 0 00-.075-.137c-.013-.018-.027-.03-.03-.042-.023-.082.17-.231.428-.286.16-.034.3-.041.413.053.073.077.084.152.08.307a4.15 4.15 0 01-.016.204c-.02.244-.087.671-.107.916-.035.338-.071.717-.08 1.066-.004.17-.007.495.007.546.008.025.02.043.043.037.022-.006.034-.023.067-.107l.028-.102.028-.103s.152-.495.28-.9c.137-.39.275-.792.366-1.018.135-.334.204-.58.438-.635.234-.055.448.041.492.203.023.083.023.136.014.462-.017.57.022 1.021.036 1.456.012.19.028.337.048.408.009.032.027.042.043.039.03-.007.04-.03.058-.109l.025-.114.164-.764c.128-.559.217-.888.374-1.405.187-.614.325-.893.56-.941.22-.046.345.124.357.292a.637.637 0 01-.07.273l-.18.481z" fill="#004561"/></g></svg>