<svg width="20" height="24" xmlns="http://www.w3.org/2000/svg"><path d="M10 0a9.5 9.5 0 019.2 11.88C18.26 16.478 10 24 10 24S1.775 16.509.808 11.907A9.523 9.523 0 01.5 9.5 9.5 9.5 0 0110 0zm4.525 4.002l-.116.016c-.551.114-.875.769-1.314 2.211a42.482 42.482 0 00-.879 3.302 2034.84 2034.84 0 00-.445 2.065c-.044.186-.067.239-.138.254-.035.007-.08-.015-.1-.091-.046-.168-.084-.514-.112-.958-.034-1.023-.126-2.082-.086-3.423.023-.766.021-.89-.032-1.086-.104-.38-.607-.605-1.157-.476-.55.13-.71.707-1.028 1.492-.213.532-.538 1.477-.86 2.394-.302.95-.658 2.114-.658 2.114l-.066.241-.066.241c-.078.197-.106.236-.158.25-.054.014-.083-.027-.1-.087-.033-.119-.028-.881-.017-1.283.02-.82.105-1.71.187-2.505.047-.574.205-1.578.253-2.152.016-.174.033-.355.037-.479.01-.366-.016-.542-.187-.723-.268-.22-.595-.204-.972-.123-.607.128-1.06.479-1.007.672.009.029.04.057.072.099.092.124.14.194.176.32.044.148.065.353.064.683l-.04.89a75.136 75.136 0 00-.223 3.61 20.15 20.15 0 00.088 2.556c.04.473.148.86.205 1.068.103.372.306.785.656.868.261.062.461.047.804-.036.315-.077.791-.358.897-.8l.403-1.479c.12-.526.39-1.459.622-2.268.132-.481.306-1.02.398-1.299.056-.142.083-.18.118-.188.037-.009.058.002.066.032a.331.331 0 01.01.09l.005.1.007.303c.026.99.229 2.694.42 3.39.124.455.16 1.018.912 1.122.348.048.637-.043.637-.043.555-.158.699-.456.823-.965.081-.323.332-1.21.47-1.783l.122-.504.326-1.3c.507-1.969.86-3.084 1.12-3.857l.421-1.131c.11-.214.177-.506.166-.641-.028-.395-.32-.794-.84-.687z" fill="#CD2028" fill-rule="evenodd"/></svg>