<svg width="20" height="20" xmlns="http://www.w3.org/2000/svg" xmlns:xlink="http://www.w3.org/1999/xlink"><defs><path d="M.86 0a.853.853 0 00-.842.863v12.058c0 .477.377.864.841.864h16.232a.853.853 0 00.842-.864V.863A.853.853 0 0017.09 0H.86z" id="a"/></defs><g transform="translate(1 3)" fill="none" fill-rule="evenodd"><mask id="b" fill="#fff"><use xlink:href="#a"/></mask><path fill="#FFF" mask="url(#b)" d="M3.747 0h10.461v13.815H3.747z"/><path fill="#CD1F28" mask="url(#b)" d="M-.533 13.785H4.23V-.03H-.533zM13.757-.029h4.764v13.814h-4.764zM5.655 6.646l-.37.13 1.721 1.55c.13.398-.045.515-.157.724l1.87-.243-.05 1.93.388-.012-.085-1.913 1.87.227c-.115-.25-.218-.384-.111-.785l1.72-1.468-.3-.112c-.247-.195.106-.939.159-1.408 0 0-1.005.355-1.07.17l-.256-.505-.914 1.03c-.1.024-.142-.016-.166-.103l.422-2.152-.668.386c-.056.024-.112.003-.149-.064l-.643-1.323-.663 1.374c-.05.05-.1.055-.141.022l-.637-.367.382 2.136c-.03.084-.103.108-.189.062l-.873-1.018c-.114.188-.192.495-.343.564-.15.064-.657-.13-.996-.206.116.428.478 1.14.249 1.374z"/></g></svg>