<svg width="20" height="20" xmlns="http://www.w3.org/2000/svg" xmlns:xlink="http://www.w3.org/1999/xlink"><defs><path d="M.865.028a.847.847 0 00-.84.854v11.95c0 .471.376.853.84.853h16.252c.464 0 .84-.382.84-.853V.882a.847.847 0 00-.84-.854H.865z" id="a"/><path id="c" d="M.018.015v1.118h7.414V.015H.018z"/><path id="e" d="M.018.014v1.118h8.666V.014H.018z"/><path id="g" d="M.018.014V1.13h7.414V.014H.018z"/><path id="i" d="M.018.013V1.13h8.666V.013H.018z"/><path id="k" d="M.018.012V1.13h7.414V.012H.018z"/><path id="m" d="M.018.01v1.12h8.666V.01H.018z"/></defs><g fill="none" fill-rule="evenodd"><g transform="translate(1 3.01)"><mask id="b" fill="#fff"><use xlink:href="#a"/></mask><path fill="#CD1F28" mask="url(#b)" d="M.024 1.079H25.58V.029H.024zm0 2.101H25.58V2.13H.024zm0 2.101H25.58v-1.05H.024zm0 2.101H25.58v-1.05H.024zm0 2.101H25.58v-1.05H.024zm0 2.101H25.58v-1.05H.024zm0 2.101H25.58v-1.05H.024z"/><path d="M.024 12.635H25.58v-1.05H.024v1.05zm0-2.101H25.58v-1.05H.024v1.05zm0-2.101H25.58v-1.05H.024v1.05zm0-2.101H25.58V5.28H.024v1.05zm0-2.102H25.58V3.18H.024v1.05zm0-2.1H25.58V1.078H.024v1.05z" fill="#FFF" mask="url(#b)"/><path fill="#037EAA" mask="url(#b)" d="M.036 7.38H10.26V.025H.036z"/></g><g transform="translate(1.785 3.409)"><mask id="d" fill="#fff"><use xlink:href="#c"/></mask><path d="M6.853.015l.137.427h.442l-.357.264.136.427L6.853.87l-.357.264.136-.427-.357-.264h.442l.136-.427zm-2.502 0l.136.427h.443l-.358.264.136.427L4.351.87l-.358.264.137-.427-.358-.264h.442l.137-.427zm-2.503 0l.137.427h.442l-.358.264.137.427L1.848.87l-.358.264.137-.427-.358-.264h.442l.137-.427zm-2.503 0l.137.427h.442l-.358.264.137.427L-.655.87l-.358.264.137-.427-.358-.264h.442l.137-.427zm-2.503 0l.137.427h.442l-.357.264.136.427-.358-.264-.357.264.136-.427-.357-.264h.442l.136-.427z" fill="#FFF" mask="url(#d)"/></g><g transform="translate(1.785 4.49)"><mask id="f" fill="#fff"><use xlink:href="#e"/></mask><path d="M8.105.014l.137.427h.442l-.358.264.137.427-.358-.264-.358.264.137-.427-.358-.264h.442l.137-.427zm-2.503 0l.137.427h.442l-.358.264.137.427-.358-.264-.358.264.137-.427-.358-.264h.442l.137-.427zM3.1.014l.137.427h.442L3.32.705l.137.427-.358-.264-.357.264.136-.427L2.52.441h.443l.136-.427zm-2.502 0l.136.427h.442L.818.705l.136.427L.597.868l-.358.264.137-.427L.018.441H.46L.597.014zm-2.503 0l.136.427h.443l-.358.264.136.427-.357-.264-.358.264.137-.427-.358-.264h.442l.137-.427zm-2.503 0l.137.427h.442l-.358.264.137.427-.358-.264-.358.264.137-.427-.358-.264h.442l.137-.427z" fill="#FFF" mask="url(#f)"/></g><g transform="translate(1.785 5.571)"><mask id="h" fill="#fff"><use xlink:href="#g"/></mask><path d="M6.853.014L6.99.44h.442l-.357.263.136.427-.358-.263-.357.263.136-.427L6.275.44h.442l.136-.427zm-2.502 0l.136.427h.443l-.358.263.136.427-.357-.263-.358.263.137-.427-.358-.263h.442l.137-.427zm-2.503 0l.137.427h.442l-.358.263.137.427-.358-.263-.358.263.137-.427-.358-.263h.442l.137-.427zm-2.503 0l.137.427h.442l-.358.263.137.427-.358-.263-.358.263.137-.427-.358-.263h.442l.137-.427zm-2.503 0l.137.427h.442l-.357.263.136.427-.358-.263-.357.263.136-.427-.357-.263h.442l.136-.427z" fill="#FFF" mask="url(#h)"/></g><g transform="translate(1.785 6.652)"><mask id="j" fill="#fff"><use xlink:href="#i"/></mask><path d="M8.105.013l.137.427h.442l-.358.264.137.426-.358-.263-.358.263.137-.426L7.526.44h.442l.137-.427zm-2.503 0L5.74.44h.442l-.358.264.137.426-.358-.263-.358.263.137-.426L5.023.44h.442l.137-.427zM3.1.013l.137.427h.442L3.32.704l.137.426-.358-.263-.357.263.136-.426L2.52.44h.443l.136-.427zm-2.502 0L.733.44h.442L.818.704l.136.426L.597.867l-.358.263.137-.426L.018.44H.46L.597.013zm-2.503 0l.136.427h.443l-.358.264.136.426-.357-.263-.358.263.137-.426-.358-.264h.442l.137-.427zm-2.503 0l.137.427h.442l-.358.264.137.426-.358-.263-.358.263.137-.426-.358-.264h.442l.137-.427z" fill="#FFF" mask="url(#j)"/></g><g transform="translate(1.785 7.733)"><mask id="l" fill="#fff"><use xlink:href="#k"/></mask><path d="M6.853.012l.137.427h.442l-.357.264.136.427-.358-.264-.357.264.136-.427-.357-.264h.442l.136-.427zm-2.502 0l.136.427h.443l-.358.264.136.427-.357-.264-.358.264.137-.427-.358-.264h.442l.137-.427zm-2.503 0l.137.427h.442l-.358.264.137.427-.358-.264-.358.264.137-.427-.358-.264h.442l.137-.427zm-2.503 0l.137.427h.442l-.358.264.137.427-.358-.264-.358.264.137-.427-.358-.264h.442l.137-.427zm-2.503 0l.137.427h.442l-.357.264.136.427-.358-.264-.357.264.136-.427-.357-.264h.442l.136-.427z" fill="#FFF" mask="url(#l)"/></g><g transform="translate(1.785 8.815)"><mask id="n" fill="#fff"><use xlink:href="#m"/></mask><path d="M8.105.01l.137.428h.442l-.358.264.137.427-.358-.264-.358.264.137-.427-.358-.264h.442L8.105.01zm-2.503 0l.137.428h.442l-.358.264.137.427-.358-.264-.358.264.137-.427-.358-.264h.442L5.602.01zM3.1.01l.137.428h.442L3.32.702l.137.427-.358-.264-.357.264.136-.427L2.52.438h.443L3.099.01zM.597.01l.136.428h.442L.818.702l.136.427L.597.865l-.358.264.137-.427L.018.438H.46L.597.01zm-2.503 0l.136.428h.443l-.358.264.136.427-.357-.264-.358.264.137-.427-.358-.264h.442l.137-.427zm-2.503 0l.137.428h.442l-.358.264.137.427-.358-.264-.358.264.137-.427-.358-.264h.442l.137-.427z" fill="#FFF" mask="url(#n)"/></g></g></svg>