<svg width="36" height="36" xmlns="http://www.w3.org/2000/svg" xmlns:xlink="http://www.w3.org/1999/xlink"><defs><path id="a" d="M0 0h36v36H0z"/><path id="c" d="M0 27.83V.008h27.991v27.82z"/></defs><g fill="none" fill-rule="evenodd"><mask id="b" fill="#fff"><use xlink:href="#a"/></mask><use fill-opacity="0" fill="#D8D8D8" xlink:href="#a"/><g mask="url(#b)"><g transform="translate(4 4.046)"><mask id="d" fill="#fff"><use xlink:href="#c"/></mask><path d="M13.996.009c-3.801 0-4.278.016-5.77.083C6.735.16 5.717.395 4.827.74c-.92.356-1.7.831-2.479 1.604A6.815 6.815 0 00.735 4.807c-.346.885-.583 1.896-.65 3.377C.015 9.668 0 10.14 0 13.919c0 3.778.016 4.252.084 5.735.068 1.48.305 2.492.65 3.377.358.915.837 1.69 1.615 2.464a6.865 6.865 0 002.479 1.604c.89.344 1.908.58 3.397.647 1.493.067 1.97.083 5.77.083 3.802 0 4.278-.016 5.77-.083 1.49-.068 2.508-.303 3.398-.647a6.876 6.876 0 002.48-1.604 6.815 6.815 0 001.613-2.464c.346-.885.583-1.896.651-3.377.068-1.483.084-1.957.084-5.735 0-3.778-.016-4.251-.084-5.735-.068-1.48-.305-2.492-.65-3.377a6.815 6.815 0 00-1.615-2.464A6.865 6.865 0 0023.163.74c-.89-.344-1.907-.579-3.397-.647-1.493-.067-1.97-.083-5.77-.083m0 2.506c3.737 0 4.18.014 5.655.081 1.365.062 2.106.289 2.599.48a4.34 4.34 0 011.609 1.04c.49.487.793.95 1.047 1.6.192.49.42 1.226.482 2.582.067 1.467.081 1.907.081 5.621 0 3.714-.014 4.154-.081 5.621-.062 1.356-.29 2.093-.482 2.583a4.307 4.307 0 01-1.047 1.6 4.34 4.34 0 01-1.61 1.04c-.492.19-1.233.417-2.598.479-1.476.067-1.918.081-5.655.081-3.738 0-4.18-.014-5.656-.081-1.364-.062-2.105-.289-2.599-.479a4.34 4.34 0 01-1.609-1.04 4.307 4.307 0 01-1.047-1.6c-.191-.49-.42-1.227-.482-2.583-.067-1.467-.081-1.907-.081-5.62 0-3.715.014-4.155.081-5.622.063-1.356.29-2.093.482-2.583a4.307 4.307 0 011.047-1.6 4.34 4.34 0 011.61-1.04c.493-.19 1.234-.417 2.598-.479 1.476-.067 1.919-.08 5.656-.08" fill="#EFEFEF" mask="url(#d)"/></g><path d="M17.996 22.602c-2.577 0-4.666-2.076-4.666-4.636 0-2.561 2.09-4.637 4.666-4.637 2.576 0 4.665 2.076 4.665 4.637 0 2.56-2.089 4.636-4.665 4.636m-7.187-4.636c0 3.945 3.217 7.143 7.187 7.143 3.969 0 7.187-3.198 7.187-7.143 0-3.946-3.218-7.144-7.187-7.144-3.97 0-7.187 3.198-7.187 7.144zm16.337-7.426c0 .922-.752 1.67-1.68 1.67a1.675 1.675 0 01-1.679-1.67c0-.922.752-1.669 1.68-1.669.927 0 1.679.747 1.679 1.67" fill="#EFEFEF"/></g></g></svg>