<svg viewBox="0 0 27 32" xmlns="http://www.w3.org/2000/svg" xmlns:xlink="http://www.w3.org/1999/xlink"><defs><path id="a" d="M2.262 27.965l8.148-4.381a2.037 2.037 0 001.043-2.141C9.238 8.629 7.753 1.525 6.996.132c-.633-1.167-4.227 5.467-5.882 18.423-.249 1.95-.11 4.961.415 9.034a.5.5 0 00.733.376z"/></defs><g fill="none" fill-rule="evenodd"><g transform="translate(15.375 3.397)"><mask id="b" fill="#fff"><use xlink:href="#a"/></mask><use fill="#FFF" xlink:href="#a"/><path fill="#ECECEC" mask="url(#b)" d="M7.625 21.308l7 2-14 6z"/><path fill="#DBDBDB" mask="url(#b)" d="M7.625 21.308l-2-21-4 28z"/></g><path d="M3.393 3.397C.141 18.982-.773 27.135.65 27.857c2.134 1.083 17.072 5.415 17.072 3.249 0-1.444 1.066-10.47 3.2-27.078l-17.53-.632z" fill="#fff"/><path d="M15.001 13.89c-.302.902-.715 2.203-1.306 4.5l-.38 1.516c-.048.192-.095.386-.143.588-.161.668-.453 1.704-.548 2.08-.145.594-.313.942-.96 1.126 0 0-.337.107-.743.05-.878-.12-.92-.778-1.065-1.309-.223-.812-.46-2.8-.49-3.954a63.354 63.354 0 01-.008-.354l-.005-.116a.386.386 0 00-.012-.105c-.01-.036-.035-.048-.077-.038-.041.01-.073.054-.138.22a32.5 32.5 0 00-.464 1.515c-.27.944-.587 2.032-.726 2.646l-.47 1.725c-.123.516-.68.843-1.046.933-.4.098-.634.115-.938.043-.409-.097-.646-.58-.766-1.013-.067-.243-.192-.694-.24-1.246-.093-1.099-.133-1.87-.102-2.982.036-1.286.17-3.168.26-4.211l.047-1.039c.001-.385-.023-.625-.074-.797-.044-.146-.099-.228-.206-.374-.037-.049-.074-.081-.084-.115-.062-.225.467-.634 1.175-.784.44-.094.821-.113 1.133.144.2.21.231.416.22.843a10.47 10.47 0 01-.044.559c-.056.67-.24 1.84-.295 2.511-.096.928-.195 1.966-.219 2.922-.012.469-.018 1.358.02 1.497.02.07.054.118.116.102.062-.017.094-.062.186-.292l.076-.281.077-.282s.416-1.357.768-2.466c.376-1.07.754-2.172 1.004-2.793.37-.916.558-1.588 1.198-1.74.642-.15 1.23.113 1.35.555.063.23.065.373.038 1.267-.046 1.564.06 2.8.1 3.993.033.519.077.923.13 1.118.025.088.076.115.118.106.082-.017.109-.08.16-.296l.067-.315.453-2.094a49.35 49.35 0 011.025-3.852c.512-1.683.89-2.447 1.533-2.58.607-.125.948.34.98.802.013.157-.065.498-.193.747L15 13.89z" fill="#005F85"/><path d="M4.2.183L20.13 1.88a2.994 2.994 0 012.66 3.284 2.975 2.975 0 01-3.273 2.652L3.586 6.12a2.994 2.994 0 01-2.66-3.284A2.975 2.975 0 014.2.183z" fill="#fff"/></g></svg>