<svg width="36" height="36" xmlns="http://www.w3.org/2000/svg" xmlns:xlink="http://www.w3.org/1999/xlink"><defs><path id="a" d="M0 0h36v36H0z"/></defs><g fill="none" fill-rule="evenodd"><mask id="b" fill="#fff"><use xlink:href="#a"/></mask><use fill-opacity="0" fill="#D8D8D8" xlink:href="#a"/><path d="M12.424 31c11.32 0 17.515-9.621 17.515-17.95 0-.271 0-.542-.012-.812A12.72 12.72 0 0033 8.965a12.241 12.241 0 01-3.541.997 6.322 6.322 0 002.713-3.494 12.066 12.066 0 01-3.914 1.525A6.076 6.076 0 0023.768 6c-3.397 0-6.158 2.83-6.158 6.312 0 .492.06.971.156 1.439-5.114-.258-9.652-2.78-12.69-6.595a6.43 6.43 0 00-.828 3.175 6.369 6.369 0 002.738 5.253 6.112 6.112 0 01-2.786-.787v.086c0 3.051 2.125 5.61 4.934 6.188a5.865 5.865 0 01-1.62.222 5.91 5.91 0 01-1.153-.11c.78 2.509 3.062 4.33 5.75 4.379a12.158 12.158 0 01-7.646 2.707c-.493 0-.985-.025-1.465-.086A17.203 17.203 0 0012.424 31" fill="#EFEFEF" fill-rule="nonzero" mask="url(#b)"/></g></svg>